<?xml version="1.0" standalone="no"?>
<!DOCTYPE svg PUBLIC "-//W3C//DTD SVG 20010904//EN"
 "http://www.w3.org/TR/2001/REC-SVG-20010904/DTD/svg10.dtd">
<svg version="1.0" xmlns="http://www.w3.org/2000/svg"
 width="102.000000pt" height="102.000000pt" viewBox="0 0 102.000000 102.000000"
 preserveAspectRatio="xMidYMid meet">
<metadata>
Created by potrace 1.11, written by Peter Selinger 2001-2013
</metadata>
<g transform="translate(0.000000,102.000000) scale(0.100000,-0.100000)"
fill="#000000" stroke="none">
<path d="M376 975 c-48 -17 -97 -64 -128 -121 -18 -34 -30 -45 -55 -50 -45 -8
-117 -75 -138 -126 -32 -80 -12 -186 43 -238 13 -11 17 -34 17 -95 1 -70 4
-87 28 -128 41 -69 102 -102 194 -103 64 -1 75 -4 108 -32 67 -54 161 -65 236
-26 58 30 108 94 118 152 0 4 20 15 44 25 150 61 193 222 96 358 -16 23 -19
35 -12 57 24 70 -11 181 -73 228 -57 44 -164 63 -206 37 -5 -2 -23 7 -41 21
-69 53 -156 68 -231 41z m160 -62 c48 -22 106 -75 131 -120 l23 -40 -44 -1
c-35 -1 -51 5 -78 28 -32 28 -86 47 -118 41 -26 -5 -59 -43 -82 -93 -12 -26
-28 -48 -35 -48 -8 0 -27 -7 -43 -15 -23 -12 -30 -13 -31 -3 -9 111 63 244
144 267 37 11 89 5 133 -16z m235 -48 c33 -7 98 -71 104 -102 3 -13 7 -33 10
-46 9 -45 -9 -51 -55 -18 -24 17 -49 31 -56 31 -8 0 -27 27 -44 59 -16 33 -35
63 -41 67 -8 5 -8 9 2 14 12 8 23 7 80 -5z m-250 -116 c19 -16 21 -21 9 -26
-24 -9 -120 -111 -120 -128 0 -8 -4 -15 -9 -15 -22 0 9 139 40 177 17 19 53
16 80 -8z m-318 -75 c-1 -47 -7 -82 -15 -92 -23 -28 -45 -67 -50 -87 -4 -17
-7 -15 -27 15 -51 81 4 229 89 239 3 1 4 -33 3 -75z m505 -8 c5 -42 -5 -61
-23 -46 -8 7 -43 23 -77 35 l-62 22 35 11 c82 26 122 19 127 -22z m157 -63
c126 -129 87 -288 -82 -339 -46 -14 -129 -21 -138 -12 -2 2 3 20 13 40 13 27
27 39 56 48 59 18 84 38 96 76 14 40 2 80 -37 127 -15 19 -21 36 -18 50 3 12
7 36 9 52 2 17 4 31 5 33 2 7 63 -41 96 -75z m-518 -31 c1 -26 7 -59 12 -74 6
-17 6 -28 1 -28 -21 0 -90 91 -90 118 0 13 61 44 69 36 3 -2 6 -26 8 -52z
m221 4 c13 -11 33 -38 43 -58 l19 -38 -41 -21 c-23 -11 -66 -23 -95 -26 -50
-5 -54 -4 -55 16 -1 11 -2 31 -3 44 -3 24 17 79 40 115 15 23 16 23 42 6 15
-9 38 -26 50 -38z m126 -27 c64 -56 80 -90 62 -131 -7 -14 -55 -35 -65 -26 -2
2 -5 25 -7 52 -1 26 -14 70 -29 97 -14 27 -21 49 -17 49 5 0 30 -19 56 -41z
m-442 -48 c21 -33 25 -46 18 -74 -9 -41 9 -102 37 -122 20 -16 37 -18 100 -16
34 1 51 -5 87 -33 l45 -34 -62 -28 c-47 -21 -78 -28 -127 -28 -79 0 -126 20
-160 71 -35 51 -35 173 -1 251 13 28 27 52 30 52 4 0 19 -18 33 -39z m200
-119 l63 -7 -44 -18 c-52 -21 -115 -24 -136 -7 -8 7 -15 27 -15 46 l0 33 34
-20 c19 -11 63 -23 98 -27z m181 -4 c-8 -49 -41 -108 -61 -108 -18 0 -70 36
-62 43 3 2 26 18 51 35 25 16 51 37 58 46 19 22 20 20 14 -16z m42 -180 c36
-1 65 -5 65 -9 0 -12 -59 -78 -79 -89 -39 -21 -101 -21 -146 -1 -25 11 -45 24
-45 28 0 5 15 14 33 21 17 6 45 23 62 36 16 13 33 22 38 19 4 -2 36 -5 72 -5z"/>
</g>
</svg>
